<?xml version="1.0" encoding="UTF-8" standalone="no"?>
<!-- Created with Inkscape (http://www.inkscape.org/) -->

<svg
   xmlns:dc="http://purl.org/dc/elements/1.1/"
   xmlns:cc="http://creativecommons.org/ns#"
   xmlns:rdf="http://www.w3.org/1999/02/22-rdf-syntax-ns#"
   xmlns:svg="http://www.w3.org/2000/svg"
   xmlns="http://www.w3.org/2000/svg"
   xmlns:xlink="http://www.w3.org/1999/xlink"
   version="1.0"
   width="64"
   height="64"
   id="svg1324">
  <defs
     id="defs1326">
    <linearGradient
       id="linearGradient5940">
      <stop
         id="stop5942"
         style="stop-color:#ffffff;stop-opacity:1"
         offset="0" />
      <stop
         id="stop5944"
         style="stop-color:#ffffff;stop-opacity:0"
         offset="1" />
    </linearGradient>
    <linearGradient
       id="linearGradient5053">
      <stop
         id="stop5055"
         style="stop-color:#ffffff;stop-opacity:1"
         offset="0" />
      <stop
         id="stop5057"
         style="stop-color:#ffffff;stop-opacity:0"
         offset="1" />
    </linearGradient>
    <radialGradient
       cx="47.110653"
       cy="34.674294"
       r="2.3836942"
       fx="47.110653"
       fy="34.674294"
       id="radialGradient5059"
       xlink:href="#linearGradient5053"
       gradientUnits="userSpaceOnUse"
       gradientTransform="matrix(0.988961,4.346176e-6,-4.13582e-6,2.035648,0.520186,-35.36729)" />
    <radialGradient
       cx="47.110653"
       cy="34.674294"
       r="2.3836942"
       fx="47.110653"
       fy="34.674294"
       id="radialGradient5063"
       xlink:href="#linearGradient5053"
       gradientUnits="userSpaceOnUse"
       gradientTransform="matrix(0.988961,4.346176e-6,-4.13582e-6,2.035648,0.520186,-35.36729)" />
    <radialGradient
       cx="32.5"
       cy="46.716667"
       r="3"
       fx="32.5"
       fy="46.716667"
       id="radialGradient6847"
       xlink:href="#linearGradient5940"
       gradientUnits="userSpaceOnUse"
       gradientTransform="matrix(1.25,0,0,0.380555,-18.578397,23.463781)" />
    <radialGradient
       cx="32.5"
       cy="46.716667"
       r="3"
       fx="32.5"
       fy="46.716667"
       id="radialGradient2616"
       xlink:href="#linearGradient5940"
       gradientUnits="userSpaceOnUse"
       gradientTransform="matrix(1.25,0,0,0.380555,-18.578397,23.463781)" />
    <radialGradient
       cx="47.110653"
       cy="34.674294"
       r="2.3836942"
       fx="47.110653"
       fy="34.674294"
       id="radialGradient2618"
       xlink:href="#linearGradient5053"
       gradientUnits="userSpaceOnUse"
       gradientTransform="matrix(0.988961,4.346176e-6,-4.13582e-6,2.035648,0.520186,-35.36729)" />
    <radialGradient
       cx="47.110653"
       cy="34.674294"
       r="2.3836942"
       fx="47.110653"
       fy="34.674294"
       id="radialGradient2620"
       xlink:href="#linearGradient5053"
       gradientUnits="userSpaceOnUse"
       gradientTransform="matrix(0.988961,4.346176e-6,-4.13582e-6,2.035648,0.520186,-35.36729)" />
  </defs>
  <metadata
     id="metadata1329">
    <rdf:RDF>
      <cc:Work
         rdf:about="">
        <dc:format>image/svg+xml</dc:format>
        <dc:type
           rdf:resource="http://purl.org/dc/dcmitype/StillImage" />
        <cc:license
           rdf:resource="http://creativecommons.org/licenses/by-sa/4.0/" />
        <dc:title></dc:title>
        <dc:date />
        <dc:creator>
          <cc:Agent>
            <dc:title>Sebastian Wiesner</dc:title>
          </cc:Agent>
        </dc:creator>
        <dc:rights>
          <cc:Agent>
            <dc:title>Copyright (C) 2006-2014 Sebastian Wiesner</dc:title>
          </cc:Agent>
        </dc:rights>
        <dc:publisher>
          <cc:Agent>
            <dc:title />
          </cc:Agent>
        </dc:publisher>
        <dc:language />
        <dc:description />
      </cc:Work>
      <cc:License
         rdf:about="http://creativecommons.org/licenses/by-sa/3.0/">
        <cc:permits
           rdf:resource="http://creativecommons.org/ns#Reproduction" />
        <cc:permits
           rdf:resource="http://creativecommons.org/ns#Distribution" />
        <cc:requires
           rdf:resource="http://creativecommons.org/ns#Notice" />
        <cc:requires
           rdf:resource="http://creativecommons.org/ns#Attribution" />
        <cc:permits
           rdf:resource="http://creativecommons.org/ns#DerivativeWorks" />
        <cc:requires
           rdf:resource="http://creativecommons.org/ns#ShareAlike" />
      </cc:License>
    </rdf:RDF>
  </metadata>
  <g
     transform="translate(-8.5428134,0.58739986)"
     id="layer1">
    <g
       transform="matrix(1.1164564,0,0,1.1164564,16.230448,2.0829957)"
       id="g2580">
      <path
         d="m 53.558062,30.472366 a 26.204681,26.204681 0 1 1 -10e-6,-0.02209"
         transform="matrix(0.789764,0,0,0.770074,0.1736532,0.9752392)"
         id="path7229"
         style="fill:#f74c8f;fill-opacity:1;stroke:#000000;stroke-width:0.80000001;stroke-miterlimit:4;stroke-opacity:1;stroke-dasharray:none" />
      <g
         transform="translate(-4.6419028,-6.5143388)"
         id="g4251">
        <path
           d="m 25.636364,22.363636 a 4.4545455,4.3636365 0 1 1 -8.909091,0 4.4545455,4.3636365 0 1 1 8.909091,0 z"
           transform="matrix(1,0,0,1.074766,-0.727273,-0.808411)"
           id="path3517"
           style="fill:#ffffff;fill-opacity:1;stroke:#000000;stroke-opacity:1" />
        <path
           d="m 21.636363,23.272728 a 1.0909091,1.0909091 0 1 1 -2.181818,0 1.0909091,1.0909091 0 1 1 2.181818,0 z"
           transform="translate(-0.136363,0.136363)"
           id="path3523"
           style="fill:#000000;fill-opacity:1;stroke:#000000;stroke-opacity:1" />
      </g>
      <use
         transform="translate(12,-1.4843772e-7)"
         id="use4255"
         x="0"
         y="0"
         width="64"
         height="64"
         xlink:href="#g4251" />
      <path
         d="m 13.816952,34.004683 c 0,0 0.14616,5 8.044226,5 7.898065,0 7.898065,-5 7.898065,-5 0,0 -0.159055,2.456795 -8.050673,2.456795 -7.891618,0 -7.630368,-2.297397 -7.891618,-2.456795 z"
         id="path7199"
         style="fill:#ffffff;fill-opacity:1;fill-rule:evenodd;stroke:#000000;stroke-width:1.03093135px;stroke-linecap:butt;stroke-linejoin:miter;stroke-opacity:1" />
      <g
         transform="translate(-6.2103028,-6.5004988)"
         id="g7217">
        <g
           transform="translate(-1.026886,2.026212)"
           id="g5715">
          <path
             d="m 32.363637,33.727272 a 5.090909,4.4545455 0 1 1 -10.181818,0 5.090909,4.4545455 0 1 1 10.181818,0 z"
             transform="matrix(-1.126262,0,0,0.958794,59.9964,1.426853)"
             id="path4257"
             style="fill:#000000;fill-opacity:0;stroke:#000000;stroke-opacity:1" />
          <path
             d="m 26.545454,33.636364 a 1,1.2727273 0 1 1 -2,0 1,1.2727273 0 1 1 2,0 z"
             transform="translate(1.954546,0.136363)"
             id="path4985"
             style="fill:#000000;fill-opacity:1;stroke:#000000;stroke-opacity:1" />
          <use
             transform="translate(3.499999,-2.678986e-7)"
             id="use5713"
             x="0"
             y="0"
             width="64"
             height="64"
             xlink:href="#path4985" />
        </g>
        <path
           d="M 62.891233,30.687748 A 19.240698,13.353619 0 0 1 24.411845,30.880622"
           transform="matrix(0.255794,0,0,-0.101024,16.8199,34.51354)"
           id="path7213"
           style="fill:none;stroke:#000000;stroke-width:0.80000001;stroke-miterlimit:4;stroke-opacity:1;stroke-dasharray:none" />
        <use
           transform="matrix(1.202524,0,0,1.359346,-5.657323,-11.7804)"
           id="use7215"
           x="0"
           y="0"
           width="64"
           height="64"
           xlink:href="#path7213" />
      </g>
      <path
         d="m 21.681681,13.672653 a 4.5947933,3.2307141 0 0 1 -9.189108,0.04666"
         transform="matrix(1,0,0,-0.811929,-1.3466028,23.589441)"
         id="path7225"
         style="fill:none;stroke:#000000;stroke-width:0.80000001;stroke-miterlimit:4;stroke-opacity:1;stroke-dasharray:none" />
      <use
         transform="translate(12.09004,2.5515623e-6)"
         id="use7227"
         x="0"
         y="0"
         width="64"
         height="64"
         xlink:href="#path7225" />
      <path
         d="M 21.210715,-0.07382185 21.354303,7.5046832"
         id="path8732"
         style="fill:none;stroke:#000000;stroke-width:1px;stroke-linecap:butt;stroke-linejoin:miter;stroke-opacity:1" />
      <path
         d="M 23.785542,0.50468315 22.359414,6.5046832"
         id="path8750"
         style="fill:none;stroke:#000000;stroke-width:1px;stroke-linecap:butt;stroke-linejoin:miter;stroke-opacity:1" />
      <path
         d="m 18.785542,0.50468315 1,5.00000005"
         id="path8752"
         style="fill:none;stroke:#000000;stroke-width:1px;stroke-linecap:butt;stroke-linejoin:miter;stroke-opacity:1" />
      <path
         d="m 19.785542,6.5046832 -1,-5.0000001"
         id="path8754"
         style="fill:none;stroke:#000000;stroke-width:1px;stroke-linecap:butt;stroke-linejoin:miter;stroke-opacity:1" />
      <path
         d="m 25.785542,1.9364002 -2,4.164032"
         id="path8756"
         style="fill:none;stroke:#000000;stroke-width:1px;stroke-linecap:butt;stroke-linejoin:miter;stroke-opacity:1" />
      <path
         d="m 15.785542,1.5046831 2,4.0000001"
         id="path8758"
         style="fill:none;stroke:#000000;stroke-width:1px;stroke-linecap:butt;stroke-linejoin:miter;stroke-opacity:1" />
      <path
         d="m 14.785542,2.5046831 2,4.0000001"
         id="path8760"
         style="fill:none;stroke:#000000;stroke-width:1px;stroke-linecap:butt;stroke-linejoin:miter;stroke-opacity:1" />
      <path
         d="m 27.241382,3.0850985 -1.45584,2.8717457"
         id="path8778"
         style="fill:none;stroke:#000000;stroke-width:1px;stroke-linecap:butt;stroke-linejoin:miter;stroke-opacity:1" />
      <path
         d="m 18.921609,41.81289 c 0,0 0.339205,-1.141666 3.031467,-1.141666 2.692263,0 3.218534,1.141666 3.218534,1.141666 l 0,0"
         id="path8782"
         style="fill:#f74c8f;fill-opacity:1;fill-rule:evenodd;stroke:url(#radialGradient2616);stroke-width:1.19460571px;stroke-linecap:butt;stroke-linejoin:miter;stroke-opacity:1" />
      <path
         d="m 14.742574,43.61435 1,9 1,-3 1,3 2,-8 c 0,0 -4.610604,-1.281586 -5,-1 z"
         id="path9520"
         style="fill:#f74c8f;fill-opacity:1;fill-rule:evenodd;stroke:#000000;stroke-width:1px;stroke-linecap:butt;stroke-linejoin:miter;stroke-opacity:1" />
      <use
         transform="matrix(-1,0,0,1,44.537826,-0.04042895)"
         id="use10248"
         x="0"
         y="0"
         width="64"
         height="64"
         xlink:href="#path9520" />
      <g
         transform="translate(-6.2144578,-6.4953168)"
         id="g4855">
        <path
           d="m 37,13 5,-6 -1,8 0,0 0,0 -4,-2 z"
           id="path2228"
           style="fill:#f74c8f;fill-opacity:1;fill-rule:evenodd;stroke:#000000;stroke-width:0.60000002;stroke-linecap:butt;stroke-linejoin:miter;stroke-miterlimit:4;stroke-opacity:1;stroke-dasharray:none" />
        <path
           d="m 38.465229,12.685434 2.165435,-2.7985247 -0.433087,3.7313667 0,0 0,0 -1.732348,-0.932842 z"
           id="path4853"
           style="fill:#ffffff;fill-opacity:1;fill-rule:evenodd;stroke:#000000;stroke-width:0.269667;stroke-linecap:butt;stroke-linejoin:miter;stroke-miterlimit:4;stroke-opacity:1;stroke-dasharray:none" />
      </g>
      <g
         transform="matrix(-1,0,0,1,48.838133,-6.1128478)"
         id="g4859">
        <path
           d="m 37,13 5,-6 -1,8 0,0 0,0 -4,-2 z"
           id="path4861"
           style="fill:#f74c8f;fill-opacity:1;fill-rule:evenodd;stroke:#000000;stroke-width:0.60000002;stroke-linecap:butt;stroke-linejoin:miter;stroke-miterlimit:4;stroke-opacity:1;stroke-dasharray:none" />
        <path
           d="m 38.465229,12.685434 2.165435,-2.7985247 -0.433087,3.7313667 0,0 0,0 -1.732348,-0.932842 z"
           id="path4863"
           style="fill:#ffffff;fill-opacity:1;fill-rule:evenodd;stroke:#000000;stroke-width:0.269667;stroke-linecap:butt;stroke-linejoin:miter;stroke-miterlimit:4;stroke-opacity:1;stroke-dasharray:none" />
      </g>
      <path
         d="m 49.344336,34.149723 a 2.2336941,4.6704516 0 1 1 -10e-7,-0.0039"
         transform="matrix(-1.678068,0,0,1.140972,88.867923,-12.353547)"
         id="path5061"
         style="fill:url(#radialGradient2618);fill-opacity:1;stroke:#f74c8f;stroke-width:0.30000001;stroke-linecap:round;stroke-linejoin:miter;stroke-miterlimit:4;stroke-opacity:1;stroke-dasharray:none" />
      <path
         d="m 49.344336,34.149723 a 2.2336941,4.6704516 0 1 1 -10e-7,-0.0039"
         transform="matrix(1.678068,0,0,1.140972,-44.241797,-12.353547)"
         id="path4178"
         style="fill:url(#radialGradient2620);fill-opacity:1;stroke:#f74c8f;stroke-width:0.30000001;stroke-linecap:round;stroke-linejoin:miter;stroke-miterlimit:4;stroke-opacity:1;stroke-dasharray:none" />
    </g>
  </g>
</svg>
